<svg width="1058" height="785" viewBox="0 0 1058 785" fill="none" xmlns="http://www.w3.org/2000/svg">
<g id="undraw_Ride_a_bicycle_2yok 1" clip-path="url(#clip0)">
<path id="Vector" d="M209.73 115.43C204.25 122.08 202.14 131.43 199.78 140.22C180.78 211.06 133.96 268.04 80.64 308.74C58.06 325.98 30.57 349.1 35.51 380.01C38.17 396.61 49.84 408.83 58.51 422.35C76.7 450.66 82.6 489.14 73.93 523.03C64.07 561.59 36.51 597.57 45.04 636.56C50.3 660.56 68.16 677.64 85.33 692.32C112.117 715.207 139.757 736.647 168.25 756.64C187.35 770.04 207.67 783.08 229.93 784.78C249.53 786.28 268.73 778.83 287.34 771.48C303.6 765.05 320.27 758.36 333.4 745.48C341.97 737.07 348.8 726.22 358.32 719.34C380.68 703.18 409.4 713.42 435.04 720.34C495.54 736.58 560.29 730.65 617.86 703.6C706.17 662.1 773.48 574.95 859.86 528.19C897 508.08 937.4 495.6 971.79 469.7C991.165 454.953 1007.81 436.936 1020.99 416.46C1046.99 376.35 1061.05 325.21 1056.99 275.15C1052.93 225.09 1030.18 176.85 994.45 148.59C956.2 118.34 907.89 112.69 864.37 94.53C819.43 75.77 779.45 43.53 734.94 23.4C698.924 7.15665 659.728 -0.81716 620.228 0.0636141C580.728 0.944389 541.926 10.6574 506.67 28.49C458.23 52.99 409.13 110.15 355.18 114.49C316.74 117.49 239.75 79.01 209.73 115.43Z" fill="url(#paint0_linear)"/>
<g id="man-bike">
<path id="Vector_2" d="M386.08 552.194L343.373 510.05L330.027 523.574L372.734 565.718L386.08 552.194Z" fill="black"/>
<path id="Vector_3" d="M353.56 489.881C353.56 489.881 378.35 476.801 387.93 468.381C393.697 463.335 399.898 458.808 406.46 454.851L437.56 435.921L502.56 430.921L505.56 441.921C505.56 441.921 510.56 457.921 460.56 471.921C410.56 485.921 385.56 507.921 385.56 507.921C385.56 507.921 353.56 518.881 353.56 489.881Z" fill="#DB8B8B"/>
<path id="Vector_4" opacity="0.1" d="M388.21 505.751C386.44 507.101 385.56 507.881 385.56 507.881C385.56 507.881 353.56 518.881 353.56 489.881C353.56 489.881 355.11 489.061 357.56 487.691C360.035 491.721 363.503 495.05 367.631 497.359C371.759 499.669 376.41 500.881 381.14 500.881H384.53L388.21 505.751Z" fill="black"/>
<path id="Vector_5" opacity="0.05" d="M504.62 447.441C501.84 453.331 492.25 463.011 460.56 471.881C419.95 483.251 395.83 499.881 388.21 505.751C386.44 507.101 385.56 507.881 385.56 507.881C385.56 507.881 353.56 518.881 353.56 489.881C353.56 489.881 355.11 489.061 357.56 487.691C364.99 483.621 380.72 474.691 387.9 468.341C393.666 463.294 399.867 458.766 406.43 454.811L437.53 435.881L449.11 434.991L502.53 430.881L505.53 441.881C505.53 441.881 506.23 444.031 504.62 447.441Z" fill="black"/>
<path id="Vector_6" d="M354.06 483.381L327.56 500.881L405.16 565.881C405.16 565.881 416.56 558.881 410.56 550.881C410.56 550.881 390.56 533.881 389.56 509.881L383.56 501.881H380.17C374.438 501.882 368.847 500.102 364.169 496.788C359.492 493.474 355.96 488.789 354.06 483.381V483.381Z" fill="#ABB1D1"/>
<path id="Vector_7" opacity="0.1" d="M504.62 447.441C488.62 439.711 449.56 438.881 449.56 438.881L449.14 434.991L502.56 430.881L505.56 441.881C505.56 441.881 506.23 444.031 504.62 447.441Z" fill="black"/>
<path id="Vector_8" d="M449.56 436.881C449.56 436.881 496.56 437.881 508.56 447.881L502.56 326.881H437.56L449.56 436.881Z" fill="#ABB1D1"/>
<path id="Vector_9" opacity="0.05" d="M449.56 436.381C449.56 436.381 496.56 437.381 508.56 447.381L502.56 326.381H437.56L449.56 436.381Z" fill="black"/>
<path id="Vector_10" d="M487.32 362.841C487.32 362.841 604.97 358.841 607.37 374.051C609.77 389.261 489.72 382.851 489.72 382.851C489.72 382.851 480.12 373.241 487.32 362.841Z" fill="#535461"/>
<path id="Vector_11" opacity="0.05" d="M487.32 362.841C487.32 362.841 604.97 358.841 607.37 374.051C609.77 389.261 489.72 382.851 489.72 382.851C489.72 382.851 480.12 373.241 487.32 362.841Z" fill="black"/>
<path id="Vector_12" d="M392.08 423.671H371.27V604.551H392.08V423.671Z" fill="#7D7D82"/>
<path id="Vector_13" opacity="0.1" d="M392.08 423.661V437.591C385.16 438.491 378.08 439.061 371.27 439.281V423.661H392.08Z" fill="black"/>
<path id="Vector_14" d="M390.52 408.671C387.6 408.445 384.696 408.054 381.82 407.501C370.54 405.341 342.1 400.811 334.45 408.501C324.85 418.101 328.05 434.911 353.66 437.311C379.27 439.711 423.29 433.311 432.1 423.701C432.1 423.661 416.17 410.641 390.52 408.671Z" fill="#535461"/>
<path id="Vector_15" d="M386.48 473.291L604.98 405.261L612.18 422.071L388.08 498.901L386.48 473.291Z" fill="#7D7D82"/>
<path id="Vector_16" d="M451.31 580.541L608.98 425.271L617.78 438.071L467.31 594.941L451.31 580.541Z" fill="#7D7D82"/>
<path id="Vector_17" opacity="0.1" d="M652.66 527.741C647.664 529.033 642.792 530.763 638.1 532.911L628.54 506.201C633.557 504.014 638.724 502.186 644 500.731L652.66 527.741Z" fill="black"/>
<path id="Vector_18" d="M679.41 606.151L668.21 612.551L590.07 394.221L586.57 384.451L604.98 374.041L609.59 388.421L679.41 606.151Z" fill="#7D7D82"/>
<path id="Vector_19" opacity="0.1" d="M609.59 388.421L590.07 394.221L586.57 384.451L604.98 374.041L609.59 388.421Z" fill="black"/>
<path id="Vector_20" d="M490.52 405.261L600.17 367.641C600.17 367.641 619.38 370.041 612.17 386.051L501.73 418.861C501.73 418.861 484.93 420.461 490.52 405.261Z" fill="#535461"/>
<path id="Vector_21" opacity="0.1" d="M366.87 613.751C366.869 619.885 366.394 626.01 365.45 632.071C355.85 631.381 345.93 630.381 336.21 629.381C338.369 617.49 338.101 605.285 335.42 593.501C344.89 591.501 354.56 589.591 364 587.861C365.913 596.358 366.875 605.041 366.87 613.751V613.751Z" fill="black"/>
<path id="Vector_22" opacity="0.1" d="M392.08 583.271V604.541H371.27V586.541C378.47 585.291 385.47 584.181 392.08 583.271Z" fill="black"/>
<path id="Vector_23" d="M257.62 613.381C257.62 613.381 425.7 569.381 439.3 586.171C452.9 602.961 467.31 625.381 424.93 633.381C382.55 641.381 254.45 619.771 254.45 619.771L257.62 613.381Z" fill="#7D7D82"/>
<path id="Vector_24" opacity="0.1" d="M340.29 539.261L318.93 558.811C315.147 553.955 310.871 549.504 306.17 545.531L326.11 524.701C331.244 529.14 335.988 534.011 340.29 539.261V539.261Z" fill="black"/>
<path id="Vector_25" d="M252.02 604.551L377.67 473.291L381.68 503.701L258.42 616.551L252.02 604.551Z" fill="#7D7D82"/>
<path id="Vector_26" opacity="0.1" d="M250.42 626.161C257.495 626.161 263.23 620.426 263.23 613.351C263.23 606.276 257.495 600.541 250.42 600.541C243.345 600.541 237.61 606.276 237.61 613.351C237.61 620.426 243.345 626.161 250.42 626.161Z" fill="black"/>
<path id="Vector_27" d="M248.81 626.161C255.885 626.161 261.62 620.426 261.62 613.351C261.62 606.276 255.885 600.541 248.81 600.541C241.735 600.541 236 606.276 236 613.351C236 620.426 241.735 626.161 248.81 626.161Z" fill="#535461"/>
<path id="Vector_28" opacity="0.1" d="M674.21 624.961C681.285 624.961 687.02 619.226 687.02 612.151C687.02 605.076 681.285 599.341 674.21 599.341C667.135 599.341 661.4 605.076 661.4 612.151C661.4 619.226 667.135 624.961 674.21 624.961Z" fill="black"/>
<path id="Vector_29" d="M675.01 626.561C682.085 626.561 687.82 620.826 687.82 613.751C687.82 606.676 682.085 600.941 675.01 600.941C667.935 600.941 662.2 606.676 662.2 613.751C662.2 620.826 667.935 626.561 675.01 626.561Z" fill="#535461"/>
<path id="Vector_30" opacity="0.1" d="M447.3 626.161C461.444 626.161 472.91 614.695 472.91 600.551C472.91 586.407 461.444 574.941 447.3 574.941C433.156 574.941 421.69 586.407 421.69 600.551C421.69 614.695 433.156 626.161 447.3 626.161Z" fill="black"/>
<path id="Vector_31" d="M448.91 626.161C463.054 626.161 474.52 614.695 474.52 600.551C474.52 586.407 463.054 574.941 448.91 574.941C434.766 574.941 423.3 586.407 423.3 600.551C423.3 614.695 434.766 626.161 448.91 626.161Z" fill="#535461"/>
<path id="Vector_32" d="M442.072 598.627L442.064 598.633C439.057 600.882 438.442 605.143 440.691 608.151L461.017 635.331C463.266 638.339 467.527 638.954 470.535 636.705L470.543 636.699C473.551 634.449 474.165 630.188 471.916 627.181L451.59 600C449.341 596.993 445.08 596.378 442.072 598.627Z" fill="#6C63FF"/>
<path id="Vector_33" d="M564.56 244.881L562.18 274.991C561.906 278.805 561.956 282.635 562.33 286.441C562.64 289.811 562.33 295.711 559.03 304.711C554.793 316.208 552.603 328.358 552.56 340.611V374.881L529.56 370.881C529.56 370.881 530.56 322.881 526.56 314.881C522.56 306.881 529.56 235.881 529.56 235.881L564.56 244.881Z" fill="#DB8B8B"/>
<path id="Vector_34" opacity="0.05" d="M563.38 259.801L562.18 274.991C561.91 278.802 561.963 282.629 562.34 286.431C562.65 289.801 562.34 295.701 559.04 304.711C554.803 316.208 552.613 328.358 552.57 340.611V374.881L529.57 370.881C529.57 370.881 530.57 322.881 526.57 314.881C523.74 309.211 526.42 271.941 528.23 250.671C528.98 241.921 529.57 235.881 529.57 235.881L564.57 244.881L563.38 259.801Z" fill="black"/>
<path id="Vector_35" d="M450.58 474.881L441.93 524.081C440.839 530.65 439.166 537.109 436.93 543.381C431.86 557.241 435.1 576.671 437.56 587.271C438.65 591.951 439.56 594.911 439.56 594.911L413.56 608.911L405.56 602.911V598.911L404.56 509.911C398.56 495.911 400.56 474.911 404.56 466.911C405.697 464.282 406.497 461.52 406.94 458.691C408.94 447.971 409.56 432.911 409.56 432.911C409.56 432.911 425.56 405.911 444.56 423.911C451.56 430.541 454.22 439.211 454.78 447.511C455.76 461.721 450.58 474.881 450.58 474.881Z" fill="#DB8B8B"/>
<path id="Vector_36" opacity="0.1" d="M454.78 447.481C440.91 455.721 416.78 458.051 406.94 458.661C408.94 447.941 409.56 432.881 409.56 432.881C409.56 432.881 425.56 405.881 444.56 423.881C451.56 430.511 454.22 439.181 454.78 447.481Z" fill="black"/>
<path id="Vector_37" d="M488.56 422.881C477.926 428.544 467.877 435.243 458.56 442.881C442.56 455.881 402.56 456.881 402.56 456.881V441.881C403.56 423.881 386.56 403.881 363.56 347.881C348.87 312.121 352.94 291.881 357.8 281.881C360.56 276.231 363.56 273.881 363.56 273.881L488.56 297.881L493.03 311.281L502.56 339.881C502.56 339.881 467.56 341.881 461.56 344.881C455.56 347.881 459.56 374.881 459.56 374.881C453.56 402.881 488.56 422.881 488.56 422.881Z" fill="#ABB1D1"/>
<path id="Vector_38" opacity="0.1" d="M564.56 244.881L563.38 259.801C545.98 264.801 533.56 248.881 533.56 248.881C531.745 249.367 529.962 249.965 528.22 250.671C528.97 241.921 529.56 235.881 529.56 235.881L564.56 244.881Z" fill="black"/>
<path id="Vector_39" opacity="0.1" d="M493.03 311.281C492.56 315.951 492.56 318.881 492.56 318.881C492.56 318.881 469.56 337.881 430.56 308.881C391.56 279.881 356.56 287.881 356.56 287.881C356.56 287.881 356.97 285.561 357.8 281.881C360.56 276.231 363.56 273.881 363.56 273.881L488.56 297.881L493.03 311.281Z" fill="black"/>
<path id="Vector_40" d="M578.04 205.831C575.43 226.181 574.56 251.831 574.56 251.831C551.56 269.831 533.56 246.831 533.56 246.831C511.84 252.661 501.63 271.671 496.82 288.261C494.244 297.235 492.812 306.498 492.56 315.831C492.56 315.831 486.48 320.831 475.28 321.831C464.69 322.721 449.51 319.961 430.56 305.831C391.56 276.831 356.56 284.831 356.56 284.831C356.56 284.831 363.56 244.831 379.56 232.831C395.56 220.831 407.56 205.831 427.56 159.831C447.56 113.831 488.56 124.831 488.56 124.831C488.56 124.831 490.56 115.831 527.56 124.831C536.572 127.193 544.914 131.612 551.93 137.741C571.72 154.381 581.32 180.191 578.04 205.831Z" fill="white"/>
<path id="Vector_41" d="M540.93 147.381C540.88 148.711 540.77 150.191 540.59 151.841C538.59 169.841 536.59 167.841 514.59 171.841C500.91 174.331 493.8 162.901 490.38 153.901C489.142 150.641 488.208 147.273 487.59 143.841L535.59 135.841C535.59 135.841 541.34 134.231 540.93 147.381Z" fill="#DB8B8B"/>
<path id="Vector_42" opacity="0.05" d="M496.82 288.311C494.244 297.285 492.812 306.548 492.56 315.881C492.56 315.881 486.48 320.881 475.28 321.881C474.964 321.244 474.723 320.573 474.56 319.881C472.56 310.881 457.56 294.881 457.56 294.881C447.56 285.881 445.56 269.881 445.56 269.881L429.06 221.381L423.56 216.881C423.56 216.881 446.56 198.881 466.56 213.881C486.56 228.881 480.56 260.881 480.56 260.881L484.56 271.881C488.71 275.381 492.93 281.551 496.82 288.311Z" fill="black"/>
<path id="Vector_43" d="M426.56 215.881L448.56 268.881C448.56 268.881 450.56 284.881 460.56 293.881C460.56 293.881 475.56 309.881 477.56 318.881C479.56 327.881 507.56 351.881 507.56 351.881C507.56 351.881 533.56 375.881 535.56 384.881C535.56 384.881 559.56 391.881 556.56 405.881C556.56 405.881 574.56 387.881 556.56 370.881C538.56 353.881 514.56 318.881 514.56 318.881C514.56 318.881 500.56 281.881 487.56 270.881L483.56 259.881C483.56 259.881 489.56 227.881 469.56 212.881C449.56 197.881 426.56 215.881 426.56 215.881Z" fill="#DB8B8B"/>
<path id="Vector_44" opacity="0.1" d="M439.56 594.881L413.56 608.881L405.56 602.881V598.881C414.544 598.243 423.273 595.609 431.11 591.171C433.51 589.811 435.77 588.471 437.58 587.291C438.63 591.921 439.56 594.881 439.56 594.881Z" fill="black"/>
<path id="Vector_45" opacity="0.1" d="M469.56 173.881L483.56 228.881C483.56 228.881 440.56 235.881 431.56 228.881C422.56 221.881 405.56 219.881 405.56 219.881C405.56 219.881 423.56 167.881 433.56 161.881C443.56 155.881 469.56 173.881 469.56 173.881Z" fill="black"/>
<path id="Vector_46" d="M469.56 171.881L483.56 226.881C483.56 226.881 440.56 233.881 431.56 226.881C422.56 219.881 405.56 217.881 405.56 217.881C405.56 217.881 423.56 165.881 433.56 159.881C443.56 153.881 469.56 171.881 469.56 171.881Z" fill="white"/>
<path id="Vector_47" opacity="0.1" d="M540.93 146.381C538.129 150.247 534.567 153.499 530.463 155.938C526.358 158.376 521.798 159.949 517.063 160.56C512.328 161.171 507.519 160.806 502.93 159.489C498.341 158.172 494.07 155.93 490.38 152.901C489.142 149.641 488.208 146.273 487.59 142.841L535.59 134.841C535.59 134.841 541.34 133.231 540.93 146.381Z" fill="black"/>
<path id="Vector_48" d="M547.56 124.881C547.56 134.163 543.872 143.066 537.309 149.63C530.745 156.193 521.843 159.881 512.56 159.881C503.277 159.881 494.375 156.193 487.811 149.63C481.248 143.066 477.56 134.163 477.56 124.881C477.56 124.301 477.56 123.721 477.56 123.141C477.791 113.858 481.7 105.048 488.426 98.6469C495.153 92.2463 504.147 88.7801 513.43 89.0108C522.713 89.2416 531.523 93.1503 537.924 99.8773C544.325 106.604 547.791 115.598 547.56 124.881V124.881Z" fill="#DB8B8B"/>
<path id="Vector_49" opacity="0.1" d="M547.56 124.881C547.563 128.107 547.119 131.317 546.24 134.421C543.535 135.01 540.713 134.752 538.16 133.681C534.42 132.211 531.21 129.681 527.62 127.861C517.51 122.741 505.48 123.751 494.28 125.441C488.72 126.281 482.41 127.061 478.04 123.521C477.89 123.402 477.746 123.275 477.61 123.141C477.841 113.858 481.75 105.048 488.476 98.6469C495.203 92.2463 504.197 88.7801 513.48 89.0108C522.763 89.2416 531.573 93.1503 537.974 99.8773C544.375 106.604 547.841 115.598 547.61 124.881H547.56Z" fill="black"/>
<path id="Vector_50" opacity="0.05" d="M384.06 232.381C384.06 232.381 410.06 239.381 418.06 257.381C426.06 275.381 447.7 278.671 447.7 278.671" fill="black"/>
<path id="Vector_51" d="M482.06 628.381H422.06V647.381H482.06V628.381Z" fill="black"/>
<path id="Vector_52" d="M431.07 593.121C436.44 590.121 441.15 587.121 441.56 585.881C441.56 585.881 455.11 600.181 467.18 604.621C471.239 606.12 475.124 608.051 478.77 610.381C483.55 613.381 490.37 616.911 496.56 616.911C496.56 616.911 510.56 628.911 483.56 630.911C456.56 632.911 393.56 625.911 393.56 625.911L397.56 600.911C409.247 601.596 420.884 598.891 431.07 593.121Z" fill="#ABB1D1"/>
</g>
<g id="left-wheel">
<path id="Vector_53" d="M254.725 715.778L248.455 617.838L248.325 617.628L242.005 619.828L212.925 704.678L166.675 671.888L240.345 618.478L240.415 618.268L240.835 618.118L245.585 614.668L168.345 571.358L149.425 592.158L152.425 611.658L241.245 613.278V615.278L150.765 613.658L147.345 591.518L173.245 563.058L211.995 517.858L212.685 519.728L220.885 510.728L251.345 516.188V514.978L253.345 515.038V516.548L298.705 524.668L256.415 609.278L250.245 613.748V614.248V614.808L348.045 580.728L336.435 671.938L253.435 619.068L250.515 617.428L299.455 696.308L254.725 715.778ZM250.725 621.438L256.575 712.818L296.625 695.438L250.725 621.438ZM170.145 671.868L211.935 701.498L239.275 621.758L170.145 671.868ZM252.465 616.208L254.555 617.378L334.905 668.578L345.705 583.708L252.465 616.208ZM245.365 609.008L247.875 613.058L248.315 612.738L251.315 518.208L221.575 512.888L213.415 521.888L245.365 609.008ZM169.945 569.948L244.785 611.948L243.485 609.818L211.905 523.548L174.715 564.418L169.945 569.948ZM253.345 518.558L250.345 611.278L254.865 607.998L295.775 526.178L253.345 518.558Z" fill="#535461"/>
<path id="Vector_54" d="M364.415 588.738C360.405 570.919 352.285 554.283 340.705 540.158C336.406 534.909 331.666 530.038 326.535 525.598C306.809 508.567 281.986 498.568 255.962 497.17C229.938 495.771 204.187 503.053 182.749 517.873C161.311 532.693 145.401 554.211 137.515 579.05C129.629 603.89 130.214 630.645 139.178 655.116C148.142 679.587 164.978 700.39 187.042 714.258C209.107 728.127 235.152 734.277 261.09 731.743C287.028 729.208 311.39 718.134 330.353 700.257C349.317 682.379 361.807 658.712 365.865 632.968C366.809 626.907 367.284 620.783 367.285 614.648C367.292 605.932 366.329 597.242 364.415 588.738ZM249.225 703.088C230.993 703.069 213.209 697.435 198.292 686.953C183.374 676.47 172.047 661.648 165.851 644.501C159.655 627.354 158.89 608.715 163.66 591.118C168.43 573.521 178.505 557.82 192.513 546.15C206.521 534.48 223.783 527.408 241.953 525.895C260.122 524.381 278.316 528.501 294.062 537.693C309.807 546.884 322.34 560.703 329.956 577.268C337.571 593.834 339.9 612.343 336.625 630.278C332.875 650.722 322.076 669.203 306.107 682.506C290.137 695.809 270.01 703.093 249.225 703.088V703.088Z" fill="#535461"/>
</g>
<g id="right-wheel">
<path id="Vector_55" d="M681.847 719.78L675.587 621.88L675.457 621.67L669.137 623.87L640.047 708.68L593.797 675.88L667.487 622.47L667.557 622.26L667.977 622.11L672.727 618.66L595.487 575.35L576.557 596.15L579.557 615.65L668.357 617.23V619.23L577.877 617.61L574.477 595.5L600.367 567.05L639.087 521.88L639.777 523.75L647.977 514.75L678.517 520.22V519.01L680.517 519.07V520.58L725.877 528.7L683.547 613.35L677.377 617.82V618.32V618.88L775.187 584.8L763.577 676.01L680.577 623.14L677.657 621.5L726.597 700.39L681.847 719.78ZM677.847 625.44L683.697 716.82L723.747 699.44L677.847 625.44ZM597.277 675.88L639.067 705.51L666.407 625.77L597.277 675.88ZM679.597 620.22L681.687 621.39L762.037 672.59L772.837 587.72L679.597 620.22ZM672.497 613.02L675.007 617.07L675.447 616.75L678.447 522.22L648.707 516.88L640.547 525.88L672.497 613.02ZM597.107 573.97L671.947 615.97L670.647 613.84L639.067 527.57L601.867 568.45L597.107 573.97ZM680.477 522.58L677.477 615.27L681.997 611.99L722.907 530.17L680.477 522.58Z" fill="#535461"/>
<path id="Vector_56" d="M676.757 501C666.144 500.988 655.578 502.415 645.347 505.24C640.071 506.695 634.904 508.523 629.887 510.71C603.157 522.297 581.674 543.387 569.594 569.898C557.514 596.41 555.697 626.459 564.492 654.233C573.287 682.008 592.071 705.533 617.209 720.259C642.348 734.984 672.054 739.863 700.582 733.952C729.109 728.04 754.431 711.759 771.648 688.257C788.865 664.755 796.754 635.702 793.789 606.72C790.823 577.738 777.215 550.885 755.595 531.356C733.975 511.828 705.881 501.012 676.747 501H676.757ZM676.357 707.09C656.076 707.082 636.408 700.137 620.62 687.407C604.831 674.678 593.872 656.931 589.562 637.113C585.252 617.295 587.851 596.599 596.928 578.463C606.004 560.326 621.011 545.84 639.457 537.41C644.149 535.262 649.021 533.532 654.017 532.24C666.229 529.07 678.977 528.537 691.411 530.678C703.845 532.818 715.681 537.581 726.13 544.652C736.58 551.722 745.404 560.937 752.015 571.683C758.627 582.429 762.873 594.46 764.473 606.975C766.073 619.49 764.989 632.202 761.293 644.265C757.598 656.329 751.375 667.467 743.04 676.939C734.704 686.41 724.447 693.998 712.951 699.196C701.455 704.395 688.984 707.086 676.367 707.09H676.357Z" fill="#535461"/>
</g>
<g id="hat">
<path id="Vector_57" d="M453.624 105.927C455.754 112.607 465.984 112.817 471.234 117.737C473.964 120.297 475.234 124.077 478.234 126.357C482.404 129.537 488.424 128.837 493.734 128.077C504.424 126.557 515.904 125.647 525.544 130.257C528.964 131.887 532.034 134.167 535.604 135.497C539.174 136.827 543.604 136.987 546.504 134.627C548.824 132.737 549.674 129.627 551.774 127.547C553.404 125.907 555.674 124.987 557.534 123.547C561.614 120.467 563.374 115.447 564.534 110.647C566.934 100.767 567.624 90.1167 563.534 80.7467C559.444 71.3767 549.604 63.7467 538.864 64.2367C535.574 64.3867 532.364 65.2367 529.084 65.5967C520.534 66.4667 512.084 63.5967 503.504 63.1067C501.015 62.8039 498.49 63.1483 496.174 64.1067C494.427 65.0775 492.92 66.4273 491.764 68.0567C487.836 73.2021 485.146 79.1836 483.904 85.5367C482.904 90.3267 482.854 94.6667 476.984 95.4067C470.314 96.2867 449.114 91.7967 453.624 105.927Z" fill="#472727"/>
</g>
</g>
<defs>
<linearGradient id="paint0_linear" x1="947.5" y1="129" x2="69.5" y2="644" gradientUnits="userSpaceOnUse">
<stop stop-color="#FFD363"/>
<stop offset="1" stop-color="#FF6363"/>
</linearGradient>
<clipPath id="clip0">
<rect width="1057.7" height="784.98" fill="white"/>
</clipPath>
</defs>
</svg>
